<svg xmlns="http://www.w3.org/2000/svg" viewBox="0 0 652 652"><path d="M202.4 389.3c-24.5 0-44.5 20-44.5 44.5s20 44.5 44.5 44.5 44.5-20 44.5-44.5-20-44.5-44.5-44.5" fill="#fcb716"/><path d="M78 389.3c-24.5 0-44.5 20-44.5 44.5s20 44.5 44.5 44.5 44.5-20 44.5-44.5-20-44.5-44.5-44.5" fill="#ee363f"/><path d="M326.8 389.3c-24.5 0-44.5 20-44.5 44.5s20 44.5 44.5 44.5 44.5-20 44.5-44.5-20-44.5-44.5-44.5" fill="#07af56"/><path d="M575.6 389.3c-24.5 0-44.5 20-44.5 44.5s20 44.5 44.5 44.5 44.5-20 44.5-44.5-20-44.5-44.5-44.5" fill="#04a9df"/><path d="M451.2 389.3c-24.5 0-44.5 20-44.5 44.5s20 44.5 44.5 44.5 44.5-20 44.5-44.5-20-44.5-44.5-44.5" fill="#a1479a"/><path d="M26.8 263.2c0-28.9 23.2-50.7 51.8-50.7 28.9 0 51.8 21.6 51.8 50.5v44.4c0 4.5-3.1 7.7-7.9 7.7-4.9 0-7.9-3.1-7.9-7.7v-13h-.8c-6.1 10.4-18.3 19.4-36.3 19.4-27.8.1-50.7-21.5-50.7-50.6m88.3 0c0-20.8-15.7-36.5-36.5-36.5s-36.5 15.7-36.5 36.5 15.7 36.5 36.5 36.5 36.5-15.7 36.5-36.5m55.8 83.5c-4.1-2-6.1-5.5-4.5-9.6 1.6-4.3 5.5-6.1 9.6-4.1 7.1 3.3 15.9 5.7 25.3 5.7 23.4 0 37.5-13.9 37.5-37.7v-6.5h-.8c-6.1 10.4-18.3 19.4-36.3 19.4-27.9 0-50.8-21.6-50.8-50.7 0-28.9 23.2-50.7 51.8-50.7 28.9 0 51.8 21.6 51.8 50.5v36.9c0 31.8-20.4 53.2-53.8 53.2-10.2 0-20.4-1.9-29.8-6.4m68.3-83.5c0-20.8-15.7-36.5-36.5-36.5s-36.5 15.7-36.5 36.5 15.7 36.5 36.5 36.5 36.5-15.7 36.5-36.5m35.7 0c0-28.9 23-50.7 51.8-50.7 28.9 0 51.8 21.8 51.8 50.7 0 28.9-23 50.7-51.8 50.7-28.8 0-51.8-21.8-51.8-50.7m88.4 0c0-20.8-15.7-36.5-36.5-36.5s-36.5 15.7-36.5 36.5 15.7 36.5 36.5 36.5 36.5-15.7 36.5-36.5m35.7 0c0-28.9 22.8-50.7 50.8-50.7 18.1 0 30.2 9 36.3 19.4h.8v-51.6c0-4.5 3.1-7.7 7.9-7.7 4.9 0 7.9 3.1 7.9 7.7v83c0 28.9-23 50.5-51.8 50.5-28.7.1-51.9-21.7-51.9-50.6m88.4 0c0-20.8-15.7-36.5-36.5-36.5s-36.5 15.7-36.5 36.5 15.7 36.5 36.5 36.5c20.7 0 36.5-15.7 36.5-36.5m35.7 0c0-28.9 23.2-50.7 51.8-50.7 28.9 0 51.8 21.6 51.8 50.5v44.4c0 4.5-3.1 7.7-7.9 7.7-4.9 0-7.9-3.1-7.9-7.7v-13h-.8c-6.1 10.4-18.3 19.4-36.3 19.4-27.7.1-50.7-21.5-50.7-50.6m88.3 0c0-20.8-15.7-36.5-36.5-36.5s-36.5 15.7-36.5 36.5 15.7 36.5 36.5 36.5 36.5-15.7 36.5-36.5" fill="#5a5b5b"/></svg>