<svg version="1.1" id="_x32_" xmlns="http://www.w3.org/2000/svg" width="800" height="800" viewBox="0 0 512 512" xml:space="preserve" fill="#000"><g id="SVGRepo_iconCarrier"><style>.st0{fill:#525254}</style><path class="st0" d="M128.969 136.531L72.813 453.328h366.391l-56.172-316.797H128.969zm24.375 40.391c5.844-.328 11.469-1.203 16.656-2.531 5.188-1.344 9.969-3.125 14.156-5.25 4.172-2.109 7.75-4.563 10.578-7.266 2.797-2.688 4.859-5.609 6.031-8.656h110.547c1.172 3.063 3.219 5.984 6.031 8.672 2.813 2.703 6.391 5.156 10.547 7.266 4.172 2.125 8.953 3.906 14.125 5.234 5.203 1.328 10.797 2.203 16.641 2.531l7.688 56.688c-6.031-4.891-13.156-9.344-21.156-13.25-7.922-3.859-16.719-7.203-26.156-9.953-9.391-2.719-19.469-4.844-30.031-6.297-10.516-1.438-21.563-2.203-32.969-2.203s-22.469.766-33 2.203c-10.563 1.453-20.641 3.578-30.031 6.297-9.469 2.75-18.25 6.094-26.172 9.953-8 3.906-15.125 8.359-21.156 13.25l7.671-56.688zm143.437 89.141a19.763 19.763 0 00-.391-3.203c-.219-1-.516-1.891-.891-2.734s-.828-1.594-1.359-2.281l-1.828-1.828-2.25-1.391a14.529 14.529 0 00-2.531-1 18.379 18.379 0 00-2.766-.594c-.984-.125-2-.188-3.078-.188-.969 0-1.906.047-2.75.141-.859.094-1.656.234-2.406.422l-2.063.703-1.719 1.016-1.391 1.328-1.109 1.734-.844 2.141c-.25.766-.422 1.609-.547 2.531l-1.203 10.406c-.25 1.953-.625 3.797-1.156 5.516a27.238 27.238 0 01-1.984 4.875c-.797 1.516-1.734 2.922-2.797 4.203s-2.281 2.453-3.625 3.484a25.02 25.02 0 01-4.578 2.75c-1.688.797-3.531 1.453-5.531 1.984s-4.156.922-6.469 1.188-4.766.406-7.391.406c-1.594 0-3.109-.063-4.594-.172a45.585 45.585 0 01-4.25-.484c-1.344-.203-2.656-.469-3.906-.781s-2.469-.672-3.609-1.078a44.336 44.336 0 01-3.359-1.359 32.014 32.014 0 01-3-1.609 29.54 29.54 0 01-2.719-1.828 31.408 31.408 0 01-2.453-2.031l-2.094-2.25a22.564 22.564 0 01-1.766-2.438 25.42 25.42 0 01-1.438-2.641 23.586 23.586 0 01-1.125-2.828l-.375-1.266-.297-1.313-.234-1.344-.188-1.344H181.42l1.141-13.172h16.641a69.72 69.72 0 01.656-2.719 43.53 43.53 0 01.797-2.641c.281-.875.594-1.719.938-2.563a50.77 50.77 0 011.109-2.469c.641-1.234 1.641-2.547 2.797-3.813a42.075 42.075 0 013.703-3.594 80.36 80.36 0 013.297-2.703c.906-.703 1.5-1.125 1.625-1.219l.469-.344.594-.281.75-.203.906-.125.672.031.656.125.594.172.516.25 9.688 6.203.625.578.266.656-.078.672-.438.672-1.188.875c-.688.516-1.563 1.203-2.484 2s-1.891 1.719-2.734 2.656-1.563 1.906-2 2.828a33.296 33.296 0 00-1.156 2.719 29.271 29.271 0 00-.844 2.734c-.25.906-.438 1.828-.578 2.75s-.219 1.844-.266 2.766a19.78 19.78 0 00.094 3.359c.094 1.063.313 2.094.594 3.078s.656 1.906 1.094 2.797c.469.875 1 1.719 1.641 2.516.609.781 1.328 1.469 2.125 2.063s1.703 1.094 2.703 1.484 2.109.688 3.313.891c1.188.203 2.5.297 3.875.297 1.031 0 1.969-.047 2.875-.141a19.73 19.73 0 002.531-.453l2.203-.719 1.922-1.016 1.594-1.375 1.281-1.766.969-2.156c.281-.781.5-1.625.656-2.531l1.703-11.844a27.82 27.82 0 011.172-4.844 23.87 23.87 0 011.875-4.203 22.15 22.15 0 012.594-3.594c1-1.094 2.094-2.078 3.313-2.984a21.656 21.656 0 014.063-2.375 29.267 29.267 0 015.031-1.672c1.813-.453 3.797-.781 5.938-1 2.141-.234 4.422-.344 6.875-.344 1.359 0 2.688.047 3.969.125 1.281.094 2.531.219 3.75.391s2.391.375 3.547.641c1.141.266 2.266.563 3.359.906 1.078.328 2.109.703 3.109 1.109s1.953.844 2.891 1.328a25.83 25.83 0 012.656 1.516 30.191 30.191 0 012.484 1.719l2.172 1.891 1.938 2.047 1.656 2.203c.516.766 1 1.563 1.406 2.391l.516 1.016.453 1.063.406 1.078.344 1.094h14.656l1.156 13.172h-14.578l-.266 2.313-.375 2.266-.516 2.203-.641 2.172c-.406 1.203-1.078 2.391-1.828 3.531-.75 1.125-1.609 2.188-2.406 3.125a49.438 49.438 0 01-2.141 2.266l-1.063 1-.422.438-.578.359-.688.25-.766.141-.141.016-.156.015h-.282l-.688-.031-.656-.125-.594-.203-.563-.266-10.344-6.563-.656-.563-.344-.656v-.703l.344-.703.719-.719 1.484-1.656c.547-.672 1.141-1.438 1.641-2.234.531-.813.969-1.641 1.25-2.453.297-.797.531-1.609.734-2.422.203-.828.359-1.656.484-2.5s.188-1.703.25-2.547c.034-.875.034-1.734-.029-2.593zm69.078 117.531c-6.203 2.188-11.766 5.141-16.547 8.719-4.828 3.594-8.859 7.828-11.875 12.547-3.063 4.781-5.125 10.078-5.953 15.734H180.531c-.813-5.656-2.844-10.953-5.906-15.734-3.031-4.719-7.047-8.953-11.875-12.547-4.781-3.578-10.375-6.531-16.594-8.719-6.172-2.172-13-3.594-20.25-4.141l10.531-77.813c5.125 5.828 11.688 11.234 19.547 16.094 7.938 4.922 17.156 9.266 27.422 12.875 10.375 3.641 21.766 6.531 33.953 8.5 12.234 1.984 25.234 3.063 38.672 3.063 13.469 0 26.438-1.078 38.656-3.063 12.172-1.969 23.563-4.859 33.906-8.5 10.281-3.609 19.5-7.953 27.438-12.875 7.844-4.859 14.422-10.266 19.531-16.094l10.547 77.813c-7.265.547-14.078 1.969-20.25 4.141z"/><path class="st0" d="M246.281 188.25c1.25.734 2.719 1.313 4.375 1.719 1.656.422 3.469.641 5.375.641s3.719-.219 5.359-.641c1.641-.406 3.109-.984 4.344-1.719s2.203-1.594 2.891-2.547 1.031-2.016 1.016-3.109c-.016-1.078-.422-2.109-1.109-3.063-.703-.938-1.719-1.781-2.938-2.484-1.234-.703-2.688-1.281-4.313-1.672-1.609-.391-3.375-.609-5.25-.609s-3.656.219-5.281.609-3.094.969-4.313 1.672c-1.25.703-2.25 1.547-2.953 2.484-.703.953-1.094 1.984-1.109 3.063-.031 1.094.328 2.156 1.016 3.109.672.953 1.672 1.813 2.89 2.547zm21.657 173.656c-1.531-1.094-3.344-1.969-5.375-2.578-2-.594-4.203-.938-6.5-.938-2.344 0-4.563.344-6.594.938-2.016.609-3.844 1.484-5.375 2.578s-2.813 2.406-3.672 3.859c-.891 1.469-1.391 3.078-1.422 4.781-.031 1.688.422 3.313 1.25 4.797.844 1.484 2.094 2.828 3.625 3.969s3.375 2.063 5.438 2.703 4.344 1 6.75 1c2.359 0 4.625-.359 6.672-1s3.875-1.563 5.422-2.703c1.531-1.141 2.75-2.484 3.594-3.969s1.281-3.109 1.25-4.797c-.031-1.703-.531-3.313-1.406-4.781-.876-1.452-2.126-2.765-3.657-3.859z"/><path class="st0" d="M476.688 58.672H35.313C15.813 58.672.016 74.469 0 93.985v105.922c.016 19.516 15.813 35.313 35.313 35.313h49.25l6.266-35.313H35.313V93.984h441.375v105.922h-55.516l6.266 35.313h49.25c19.5 0 35.313-15.797 35.313-35.313V93.984c-.001-19.515-15.813-35.312-35.313-35.312z"/></g></svg>