<svg width="800" height="800" viewBox="0 -18.83 122.88 122.88" xmlns="http://www.w3.org/2000/svg"><path d="M28.84 12.93l4.75.09-10.51 34.65a37.324 37.324 0 00.08.02c-9.22-2.07-16.84.95-23.16 8.13l7.87 3.71L41.3 75.3c.26-2.05.38-3.97.34-5.78.01.26.03.53.03.8h38.37c.01 8.23 6.69 14.89 14.92 14.89s14.91-6.67 14.92-14.89h12.56c.87-17.07-7.19-30.2-21.31-31.46h19a2.75 2.75 0 002.74-2.74v-3.01c0-1.49-1.22-2.7-2.7-2.7h-.24V9.79c0-1.35-1.11-2.46-2.46-2.46h-35.4c-1.35 0-2.46 1.11-2.46 2.46V30.4h-17.5c-1.85-.06-2.83.78-2.84 2.63v9.66c7.88 6.2 9.08 15.89 1.89 21.35H49.5c-.3-9.29-5.61-14.95-14.43-21.21l5.26-16.21c2.17-5.04.74-8.86-2.43-11.53.99-3.18 1.7-5.9 1.48-8.12l5.51 1.14c1.79.37 2.25 1.01 2.83-.72.1-.3.18-.59.23-.89.45-2.37.17-2.21-1.75-2.58l-5.88-1.14h-1.75l-2.16-1.21c-1.29-.74-2.63-1.18-4-1.36L30.52.09c-1.94 0-4.12-.54-5.24 1.25-.02.03-.03.14-.04.3-.79.27-1.47.86-1.98 1.67-.63.98-1.01 2.32-1.01 3.78s.39 2.8 1.01 3.78c.7 1.1 1.71 1.8 2.87 1.83.67.48 1.73.21 2.71.23zm74.29 11.44h12.46v2.19h-12.46v-2.19zM93.66 9.48h9v9.78l-4.72-3.66-4.28 3.66V9.48zm9.47 20.59h12.46v2.19h-12.46v-2.19zM7.91 59.56l13.3 6.3-4.32-1.98a6.568 6.568 0 001.38 12.99c3.63 0 6.57-2.94 6.57-6.57 0-1.12-.28-2.17-.77-3.1l9.08 4.3c-.61 7.68-7.04 13.72-14.87 13.72-8.24 0-14.92-6.68-14.92-14.92a14.75 14.75 0 014.55-10.74zM25.27 4.2c.06 1.92.19 4.39.28 6.05a2.35 2.35 0 01-.46-.55c-.42-.65-.67-1.58-.67-2.62s.26-1.97.67-2.62c.06-.09.12-.18.18-.26zM88.4 70.32h13.14c-.01 3.62-2.95 6.54-6.57 6.54s-6.56-2.92-6.57-6.54z" fill-rule="evenodd" clip-rule="evenodd"/></svg>