<svg fill="#fff" height="800" width="800" xmlns="http://www.w3.org/2000/svg" viewBox="0 0 512 512" stroke="#fff"><path d="M469.526 75.926H111.652c-23.42 0-42.474 19.049-42.474 42.463v26.714H42.463C19.05 145.104 0 164.158 0 187.578V393.61c0 23.415 19.049 42.463 42.463 42.463h357.874c23.42 0 42.474-19.049 42.474-42.463v-26.714h26.714c23.42 0 42.474-19.054 42.474-42.474V118.39c.001-23.415-19.053-42.464-42.473-42.464zm20.072 248.496c0 11.068-9.005 20.072-20.072 20.072h-26.715v-117.41h46.787v97.338zm0-119.74h-46.787v-17.104a42.221 42.221 0 00-5.053-20.072h51.84v37.176zm0-59.578H384.252c-6.185 0-11.201 5.015-11.201 11.201s5.016 11.201 11.201 11.201h16.085c11.068 0 20.072 9.005 20.072 20.072V393.61h0c0 11.061-9.005 20.061-20.072 20.061H42.463c-11.061 0-20.061-9-20.061-20.061V187.578c0-11.068 8.999-20.072 20.061-20.072h268.982c6.185 0 11.201-5.015 11.201-11.201s-5.016-11.201-11.201-11.201H91.58V118.39c0-11.061 9.005-20.061 20.072-20.061h357.874c11.068 0 20.072 9 20.072 20.061v26.714z"/><path d="M350.089 145.104h-3.92c-6.185 0-11.201 5.015-11.201 11.201s5.015 11.201 11.201 11.201h3.92c6.185 0 11.201-5.015 11.201-11.201s-5.016-11.201-11.201-11.201zM125.698 213.05H93.932c-16.571 0-30.052 13.487-30.052 30.064v8.334c0 16.576 13.482 30.064 30.052 30.064h31.766c16.571 0 30.052-13.487 30.052-30.064v-8.334c.001-16.578-13.481-30.064-30.052-30.064zm7.651 38.397c0 4.224-3.432 7.661-7.65 7.661H93.932c-4.218 0-7.65-3.436-7.65-7.661v-8.334c0-4.225 3.432-7.662 7.65-7.662h31.766c4.218 0 7.65 3.437 7.65 7.662v8.334zm100.719 104.786H69.234c-6.186 0-11.201 5.015-11.201 11.201s5.015 11.201 11.201 11.201h164.835c6.186 0 11.201-5.015 11.201-11.201s-5.015-11.201-11.202-11.201zm-69.536-40.134H69.234c-6.186 0-11.201 5.015-11.201 11.201s5.015 11.201 11.201 11.201h95.299c6.186 0 11.201-5.015 11.201-11.201s-5.015-11.201-11.202-11.201zm226.397 22.521c-1.872-17.153-15.74-30.559-32.986-31.876-7.457-.561-14.775 1.147-21.112 4.932-.115.069-.164.069-.253.016-6.361-3.799-13.661-5.508-21.148-4.947-17.218 1.315-31.086 14.71-32.974 31.843-.904 8.148.888 16.106 5.183 23.02 6.628 10.661 18.064 17.027 30.593 17.027 6.506 0 12.88-1.77 18.459-5.12a35.868 35.868 0 0018.471 5.12c12.535 0 23.968-6.367 30.583-17.029 4.281-6.89 6.073-14.839 5.184-22.986zm-24.211 11.164l-.006.009c-2.499 4.032-6.817 6.439-11.549 6.439-2.483 0-4.916-.685-7.034-1.983-3.475-2.125-7.454-3.189-11.436-3.189s-7.962 1.063-11.436 3.189a13.452 13.452 0 01-7.024 1.983c-4.732 0-9.056-2.412-11.565-6.448-1.616-2.602-2.288-5.62-1.943-8.735.699-6.335 6.035-11.481 12.403-11.967 2.842-.215 5.588.422 7.989 1.856a22.677 22.677 0 0023.179-.016c2.372-1.419 5.13-2.058 7.953-1.841 6.385.487 11.721 5.632 12.412 11.968.339 3.122-.332 6.141-1.943 8.735z"/></svg>