<svg width="800" height="800" viewBox="0 0 32 32" xmlns="http://www.w3.org/2000/svg"><g color="#000" fill-rule="evenodd"><path d="M16 24.953a1.06 1.06 0 00-1.06 1.06A1.06 1.06 0 0016 27.075a1.06 1.06 0 001.06-1.06 1.06 1.06 0 00-1.06-1.06zm5.914-2.478a1.06 1.06 0 00-.676.306 1.06 1.06 0 000 1.5 1.06 1.06 0 001.5 0 1.06 1.06 0 000-1.5 1.06 1.06 0 00-.824-.306zm-11.978 0a1.06 1.06 0 00-.674.306 1.06 1.06 0 000 1.5 1.06 1.06 0 001.5 0 1.06 1.06 0 000-1.5 1.06 1.06 0 00-.826-.306zm14.533-5.993a1.06 1.06 0 00-1.06 1.061 1.06 1.06 0 001.06 1.06 1.06 1.06 0 001.062-1.06 1.06 1.06 0 00-1.062-1.06zm-16.938 0a1.06 1.06 0 00-1.062 1.061 1.06 1.06 0 001.062 1.06 1.06 1.06 0 001.06-1.06 1.06 1.06 0 00-1.06-1.06zM16 12.014a1 1 0 00-1 1v4.584l-2.707 2.709a1 1 0 000 1.414 1 1 0 001.414 0l3-3a1 1 0 00.293-.707v-5a1 1 0 00-1-1zm5.914-1.518a1.06 1.06 0 00-.676.309 1.06 1.06 0 000 1.5 1.06 1.06 0 001.5 0 1.06 1.06 0 000-1.5 1.06 1.06 0 00-.824-.309zm-11.978 0a1.06 1.06 0 00-.674.309 1.06 1.06 0 000 1.5 1.06 1.06 0 001.5 0 1.06 1.06 0 000-1.5 1.06 1.06 0 00-.826-.309zM16 8.014a1.06 1.06 0 00-1.06 1.06 1.06 1.06 0 001.06 1.06 1.06 1.06 0 001.06-1.06A1.06 1.06 0 0016 8.014z" style="-inkscape-stroke:none"/><path d="M14 2.014a1 1 0 00-1 1 1 1 0 001 1h1v1.043c-6.425.511-11.5 5.902-11.5 12.457 0 6.891 5.608 12.5 12.5 12.5s12.5-5.609 12.5-12.5c0-2.496-.738-4.822-2.004-6.776a1 1 0 00.111-.09l2.122-2.12a1 1 0 000-1.415L25.9 4.285a1 1 0 00-1.414 0l-2.12 2.121a1 1 0 00-.178.254A12.408 12.408 0 0017 5.057V4.014h1a1 1 0 001-1 1 1 0 00-1-1zm11.193 4.392l1.414 1.414-.707.707-1.414-1.414zM16 7.014c5.81 0 10.5 4.689 10.5 10.5 0 5.81-4.69 10.5-10.5 10.5s-10.5-4.69-10.5-10.5c0-5.811 4.69-10.5 10.5-10.5z" style="-inkscape-stroke:none"/></g></svg>