<svg width="431" height="133" fill="none" xmlns="http://www.w3.org/2000/svg"><path d="M214.63 56.553c-2.97-1.143-6.854-1.485-11.081-1.485h-23.535v-7.312h40.443V35.189h-57.009V89.57h38.616c5.369 0 9.367-.457 12.338-1.6 6.284-2.4 10.511-8.225 10.511-15.88 0-7.768-3.999-13.138-10.283-15.537zm-8.225 18.85c-.914.343-2.171.457-3.771.457h-22.62v-8.682h22.62c1.829 0 3.313.115 4.456.685 1.371.686 2.057 1.943 2.057 3.542 0 1.599-.8 3.313-2.742 3.998zm64.956-40.214h-24.22L224.863 89.57H243.6l3.084-7.883h25.134l3.199 7.883h18.623l-22.279-54.38zM250.797 69.69l7.883-21.935h1.257l7.883 21.935h-17.023zm64.165-.341V89.57h-16.565V35.19h16.565v19.879h26.62v-19.88h16.566V89.57h-16.566V69.35h-26.62zm69.407-.343V89.57h-16.566V35.19h16.566v20.45h4.57l19.993-20.45h20.793L403.22 61.237l27.533 28.333h-22.05l-19.764-20.564h-4.57z" fill="#333"/><path d="M.305.23h132.068v66.42a47.663 47.663 0 01-23.829 41.276l-42.205 24.371-42.205-24.371A47.662 47.662 0 01.304 66.65V.23z" fill="#FFDD2D"/><path fill-rule="evenodd" clip-rule="evenodd" d="M36.55 35.189v20.658c2.825-3.19 7.961-5.35 13.834-5.35h6.382v24.016c0 6.389-1.736 11.981-4.312 15.057h27.76c-2.57-3.08-4.302-8.664-4.302-15.045V50.498h6.382c5.872 0 11.008 2.159 13.833 5.349V35.189H36.55z" fill="#333"/></svg>