<svg width="1000" height="1000" viewBox="0 0 1000 1000" fill="none" xmlns="http://www.w3.org/2000/svg">
<rect width="1000" height="1000" fill="white"/>
<rect x="68.8924" y="372.892" width="862.021" height="255.215" fill="#FFDB4A" stroke="black" stroke-width="1.78472"/>
<rect x="100.125" y="409.479" width="312.326" height="182.042" rx="28.5556" fill="black"/>
<g filter="url(#filter0_i_2306_215)">
<path d="M162.251 459.488C174.338 459.488 183.183 461.851 188.786 466.575C194.5 471.19 197.356 478.387 197.356 488.166C197.356 497.835 194.5 504.977 188.786 509.591C183.073 514.096 174.283 516.349 162.416 516.349H148.242V540.082H134.563V459.488H162.251ZM163.9 504.152C171.151 504.152 176.206 502.779 179.062 500.032C182.029 497.285 183.512 492.945 183.512 487.012C183.512 481.518 181.809 477.618 178.403 475.31C174.997 473.003 169.503 471.849 161.922 471.849H148.242V504.152H163.9ZM260.532 510.745L281.628 540.082H264.322L245.039 512.888H227.24V540.082H213.56V459.488H243.556C255.752 459.488 264.487 461.576 269.761 465.751C275.145 469.817 277.837 476.464 277.837 485.694C277.837 498.988 272.068 507.339 260.532 510.745ZM244.05 500.691C251.632 500.691 256.851 499.538 259.708 497.23C262.564 494.923 263.993 491.022 263.993 485.529C263.993 480.255 262.564 476.684 259.708 474.816C256.851 472.838 251.742 471.849 244.38 471.849H227.24V500.691H244.05ZM334.801 469.872C326.78 469.872 320.023 472.728 314.529 478.442C309.035 484.155 306.288 491.077 306.288 499.208C306.288 507.339 309.035 514.261 314.529 519.974C320.023 525.578 326.78 528.38 334.801 528.38C342.822 528.38 349.579 525.578 355.073 519.974C360.566 514.261 363.313 507.339 363.313 499.208C363.313 491.077 360.566 484.155 355.073 478.442C349.579 472.728 342.822 469.872 334.801 469.872ZM334.801 540.906C322.715 540.906 312.606 536.95 304.475 529.039C296.345 521.018 292.279 511.075 292.279 499.208C292.279 487.342 296.345 477.453 304.475 469.542C312.606 461.521 322.715 457.511 334.801 457.511C346.887 457.511 356.995 461.521 365.126 469.542C373.257 477.453 377.322 487.342 377.322 499.208C377.322 511.075 373.202 520.963 364.961 528.874C356.721 536.895 346.667 540.906 334.801 540.906Z" fill="white"/>
</g>
<path d="M443.626 488.049H433.357V427.551H449.317L467.503 465.532L485.814 427.551H501.649V488.049H491.505V440.789L470.349 482.729H464.658L443.626 440.789V488.049ZM542.8 435.345C536.779 435.345 531.706 437.489 527.583 441.778C523.459 446.067 521.397 451.263 521.397 457.367C521.397 463.47 523.459 468.666 527.583 472.955C531.706 477.162 536.779 479.265 542.8 479.265C548.821 479.265 553.893 477.162 558.017 472.955C562.141 468.666 564.203 463.47 564.203 457.367C564.203 451.263 562.141 446.067 558.017 441.778C553.893 437.489 548.821 435.345 542.8 435.345ZM542.8 488.667C533.727 488.667 526.139 485.698 520.036 479.76C513.932 473.739 510.881 466.274 510.881 457.367C510.881 448.459 513.932 441.036 520.036 435.098C526.139 429.077 533.727 426.066 542.8 426.066C551.873 426.066 559.461 429.077 565.564 435.098C571.667 441.036 574.719 448.459 574.719 457.367C574.719 466.274 571.626 473.698 565.44 479.636C559.254 485.657 551.708 488.667 542.8 488.667ZM629.421 427.551H639.566V488.049H628.555L594.285 443.882V488.049H584.017V427.551H594.285L629.421 472.708V427.551ZM695.401 427.551V437.077H663.111V453.16H692.061V462.192H663.111V478.399H696.391V488.049H652.842V427.551H695.401ZM729.6 488.049H719.208V464.171L696.692 427.551H707.95L724.404 455.016L740.983 427.551H752.117L729.6 464.171V488.049ZM475.916 511.551V521.077H443.626V537.16H472.576V546.192H443.626V562.399H476.906V572.049H433.357V511.551H475.916ZM522.24 572.049L507.27 549.285H506.899L491.929 572.049H479.31L500.094 540.996L480.671 511.551H493.413L506.899 531.964H507.27L520.879 511.551H533.498L514.198 540.996L534.983 572.049H522.24ZM585.669 555.347L592.226 562.028C585.957 569.203 578.204 572.791 568.967 572.791C559.812 572.791 552.182 569.863 546.079 564.007C540.058 558.069 537.048 550.604 537.048 541.614C537.048 532.542 540.141 525.036 546.326 519.098C552.512 513.077 560.307 510.066 569.709 510.066C578.947 510.066 586.741 513.53 593.092 520.458L586.659 527.51C583.772 524.706 581.05 522.768 578.493 521.696C575.936 520.623 572.926 520.087 569.462 520.087C563.276 520.087 558.08 522.067 553.873 526.026C549.749 529.985 547.687 535.016 547.687 541.119C547.687 547.14 549.749 552.254 553.873 556.46C557.997 560.667 562.905 562.77 568.596 562.77C572.06 562.77 575.029 562.193 577.503 561.038C580.06 559.883 582.782 557.986 585.669 555.347ZM601.16 572.049V511.551H611.428V537.779H641.368V511.551H651.637V572.049H641.368V547.305H611.428V572.049H601.16ZM673.365 558.316L667.303 572.049H656.416L683.139 511.551H694.026L720.626 572.049H709.738L703.676 558.316H673.365ZM699.594 548.79L688.583 523.923L677.572 548.79H699.594ZM770.855 511.551H781V572.049H769.989L735.719 527.882V572.049H725.451V511.551H735.719L770.855 556.708V511.551ZM836.217 542.604H846.362V563.265C840.671 569.616 832.505 572.791 821.865 572.791C812.875 572.791 805.37 569.822 799.349 563.883C793.328 557.945 790.317 550.522 790.317 541.614C790.317 532.707 793.369 525.242 799.472 519.221C805.658 513.118 813.123 510.066 821.865 510.066C830.608 510.066 837.866 512.582 843.64 517.613L838.196 525.407C833.99 521.861 828.835 520.087 822.731 520.087C816.546 520.087 811.349 522.108 807.143 526.149C803.019 530.108 800.957 535.263 800.957 541.614C800.957 547.965 802.937 553.12 806.896 557.079C810.937 560.955 815.927 562.894 821.865 562.894C827.639 562.894 832.423 561.657 836.217 559.182V542.604ZM898.864 511.551V521.077H866.573V537.16H895.523V546.192H866.573V562.399H899.853V572.049H856.305V511.551H898.864Z" fill="black"/>
<defs>
<filter id="filter0_i_2306_215" x="134.563" y="457.511" width="247.759" height="88.395" filterUnits="userSpaceOnUse" color-interpolation-filters="sRGB">
<feFlood flood-opacity="0" result="BackgroundImageFix"/>
<feBlend mode="normal" in="SourceGraphic" in2="BackgroundImageFix" result="shape"/>
<feColorMatrix in="SourceAlpha" type="matrix" values="0 0 0 0 0 0 0 0 0 0 0 0 0 0 0 0 0 0 127 0" result="hardAlpha"/>
<feOffset dx="5" dy="5"/>
<feGaussianBlur stdDeviation="2.5"/>
<feComposite in2="hardAlpha" operator="arithmetic" k2="-1" k3="1"/>
<feColorMatrix type="matrix" values="0 0 0 0 0 0 0 0 0 0 0 0 0 0 0 0 0 0 0.25 0"/>
<feBlend mode="normal" in2="shape" result="effect1_innerShadow_2306_215"/>
</filter>
</defs>
</svg>
