<svg width="800" height="800" viewBox="0 0 64 64" xmlns="http://www.w3.org/2000/svg"><path d="M28 57h8v2h-8z"/><path d="M60 13H50V6c0-2.757-2.243-5-5-5H19c-2.757 0-5 2.243-5 5v21H4c-1.654 0-3 1.346-3 3v12c0 1.654 1.346 3 3 3h6.713L14 47.054V58c0 2.757 2.243 5 5 5h26c2.757 0 5-2.243 5-5V33.054L53.287 31H60c1.654 0 3-1.346 3-3V16c0-1.654-1.346-3-3-3zM19 3h26c1.654 0 3 1.346 3 3v1H16V6c0-1.654 1.346-3 3-3zM4 43c-.551 0-1-.449-1-1V30c0-.551.449-1 1-1h24c.551 0 1 .449 1 1v12c0 .551-.449 1-1 1H18v4.196L11.287 43H4zm41 18H19c-1.654 0-3-1.346-3-3v-3h32v3c0 1.654-1.346 3-3 3zm3-8H16v-4.696l4 2.5V45h8c1.654 0 3-1.346 3-3V30c0-1.654-1.346-3-3-3H16V9h32v4H36c-1.654 0-3 1.346-3 3v12c0 1.654 1.346 3 3 3h8v5.804l4-2.5V53zm13-25c0 .551-.449 1-1 1h-7.287L46 33.196V29H36c-.551 0-1-.449-1-1V16c0-.551.449-1 1-1h24c.551 0 1 .449 1 1v12z"/><path d="M8 33c.551 0 1 .449 1 1h2c0-1.654-1.346-3-3-3s-3 1.346-3 3 1.346 3 3 3c.551 0 1 .449 1 1s-.449 1-1 1-1-.449-1-1H5c0 1.654 1.346 3 3 3s3-1.346 3-3-1.346-3-3-3c-.551 0-1-.449-1-1s.449-1 1-1zm16 6c-.551 0-1-.449-1-1h-2c0 1.654 1.346 3 3 3s3-1.346 3-3-1.346-3-3-3c-.551 0-1-.449-1-1s.449-1 1-1 1 .449 1 1h2c0-1.654-1.346-3-3-3s-3 1.346-3 3 1.346 3 3 3c.551 0 1 .449 1 1s-.449 1-1 1zm-4-3c0-2.757-1.794-5-4-5s-4 2.243-4 5 1.794 5 4 5 4-2.243 4-5zm-4 3c-1.084 0-2-1.374-2-3s.916-3 2-3 2 1.374 2 3-.916 3-2 3zm21-22h22v2H37zm0 4h18v2H37zm20 0h2v2h-2zm-10 4h2v2h-2zm6 0h2v2h-2zm-12 0h2v2h-2z"/></svg>