<svg width="800" height="800" viewBox="0 0 48 48" xmlns="http://www.w3.org/2000/svg"><g data-name="Layer 2"><path fill="none" d="M0 0h48v48H0z" data-name="invisible box"/><path d="M33.5 23.6a2.1 2.1 0 00-2.7-.2 1.9 1.9 0 00-.2 3l4.6 4.6H8a2 2 0 000 4h27.2l-4.6 4.6a1.9 1.9 0 00.2 3 2.1 2.1 0 002.7-.2l7.9-8a1.9 1.9 0 000-2.8zm-19 .8a2.1 2.1 0 002.7.2 1.9 1.9 0 00.2-3L12.8 17H40a2 2 0 000-4H12.8l4.6-4.6a1.9 1.9 0 00-.2-3 2.1 2.1 0 00-2.7.2l-7.9 8a1.9 1.9 0 000 2.8z" data-name="icons Q2"/></g></svg>