<svg xmlns="http://www.w3.org/2000/svg" viewBox="0 0 600 235.522"><path d="M293.63 113.553c-2.97-1.143-6.854-1.485-11.08-1.485h-23.536v-7.312h40.443V92.189h-57.01v54.381h38.617c5.37 0 9.367-.457 12.338-1.6 6.284-2.4 10.51-8.225 10.51-15.88 0-7.768-3.998-13.138-10.282-15.537zm-8.225 18.85c-.914.343-2.17.457-3.77.457h-22.621v-8.682h22.62c1.829 0 3.313.115 4.456.685 1.371.686 2.057 1.943 2.057 3.542 0 1.599-.8 3.313-2.742 3.998zm64.956-40.214h-24.22l-22.278 54.381H322.6l3.084-7.883h25.134l3.2 7.883h18.622l-22.28-54.38zm-20.564 34.502l7.883-21.935h1.257l7.883 21.935h-17.023zm64.165-.342v20.221h-16.565V92.19h16.565v19.879h26.62v-19.88h16.566v54.382h-16.566V126.35h-26.62zm69.408-.343v20.564h-16.567V92.19h16.566v20.45h4.57l19.993-20.45h20.793l-26.505 26.048 27.533 28.333h-22.05l-19.764-20.564h-4.57z" stroke-width="0" fill="#333"/><path d="M79.305 57.23h132.068v66.42a47.664 47.664 0 01-23.83 41.276l-42.204 24.371-42.205-24.37a47.663 47.663 0 01-23.83-41.277V57.23z" fill="#ffdd2d" stroke-width="0"/><path d="M115.55 92.189v20.658c2.825-3.19 7.961-5.35 13.834-5.35h6.382v24.016c0 6.389-1.736 11.981-4.312 15.057h27.76c-2.57-3.08-4.302-8.664-4.302-15.045v-24.027h6.382c5.872 0 11.008 2.159 13.833 5.349V92.189H115.55z" fill-rule="evenodd" fill="#333" stroke-width="0"/></svg>